<?xml version="1.0" standalone="no"?>
<!DOCTYPE svg PUBLIC "-//W3C//DTD SVG 20010904//EN"
 "http://www.w3.org/TR/2001/REC-SVG-20010904/DTD/svg10.dtd">
<svg version="1.0" xmlns="http://www.w3.org/2000/svg"
 width="700.000000pt" height="700.000000pt" viewBox="0 0 700.000000 700.000000"
 preserveAspectRatio="xMidYMid meet">
<metadata>
Created by potrace 1.14, written by Peter Selinger 2001-2017
</metadata>
<g transform="translate(0.000000,700.000000) scale(0.100000,-0.100000)"
fill="#000000" stroke="none">
<path d="M3385 6701 c-85 -14 -171 -39 -237 -69 -128 -59 -2173 -1235 -2240
-1289 -150 -120 -253 -285 -305 -489 -17 -64 -18 -160 -18 -1354 0 -1194 1
-1290 18 -1354 52 -204 155 -369 305 -489 67 -55 2112 -1230 2241 -1289 114
-53 211 -72 356 -71 144 1 231 18 346 71 104 47 2169 1231 2231 1279 151 116
269 304 316 507 15 64 17 190 17 1351 0 1189 -1 1285 -18 1349 -52 205 -166
385 -315 499 -62 48 -2127 1232 -2231 1279 -131 60 -336 90 -466 69z m206
-593 c31 -10 1913 -1080 1932 -1098 4 -4 -32 -30 -80 -58 -1941 -1116 -1937
-1113 -1960 -1103 -29 13 -1995 1142 -2006 1151 -9 8 1872 1088 1928 1108 41
14 144 15 186 0z m-1391 -2196 c542 -311 991 -570 998 -576 9 -9 12 -252 10
-1174 l-3 -1162 -958 548 c-548 313 -973 562 -994 582 -20 19 -46 58 -59 85
l-24 50 0 1118 0 1118 23 -12 c12 -7 465 -266 1007 -577z m3628 -802 l-3 -865
-22 -40 c-12 -22 -39 -57 -60 -77 -23 -22 -420 -255 -993 -582 l-955 -546 -3
1162 c-1 639 1 1165 5 1169 5 4 463 269 1018 588 l1010 581 3 -263 c1 -144 1
-651 0 -1127z"/>
</g>
</svg>
